<?xml version="1.0" standalone="no"?><!DOCTYPE svg PUBLIC "-//W3C//DTD SVG 1.1//EN" "http://www.w3.org/Graphics/SVG/1.1/DTD/svg11.dtd"><svg class="icon" width="32px" height="32.00px" viewBox="0 0 1024 1024" version="1.1" xmlns="http://www.w3.org/2000/svg"><path d="M983.439451 422.856057c-27.0417-63.244074-63.424206-117.711755-109.137508-163.435065-45.711301-45.715304-100.190991-82.093807-163.437067-109.13951-63.248077-27.045703-129.520358-40.571557-198.862875-40.571557-69.338514 0-135.622803 13.527855-198.858871 40.571557-63.236068 27.055711-117.711755 63.424206-163.425058 109.13951-45.72331 45.72331-82.095808 100.190991-109.147516 163.435065C13.524853 486.100132 0.001001 552.378416 0.001001 621.714929c0 99.802708 26.855565 191.815741 80.570697 276.007076 7.23327 11.048049 17.520764 16.56807 30.856479 16.56807h801.145647c13.329711 0 23.617206-5.522023 30.850475-16.56807 53.719135-84.56961 80.5747-176.576639 80.5747-276.007076 0-69.336513-13.517848-135.614797-40.559548-198.858872zM460.282323 204.286826c14.294414-14.288409 31.526968-21.433615 51.717677-21.433615 20.192711 0 37.425265 7.147207 51.713674 21.433615 14.288409 14.280403 21.437618 31.520964 21.437618 51.711673s-7.149208 37.425265-21.437618 51.711673-31.520964 21.433615-51.713674 21.433614c-20.190709 0-37.431269-7.147207-51.717677-21.433614-14.280403-14.288409-21.429612-31.520964-21.429612-51.711673s7.141202-37.429268 21.429612-51.711673z m-262.279075 469.141777c-14.286408 14.280403-31.526968 21.445623-51.717677 21.445624-20.184705 0-37.425265-7.16522-51.711672-21.445624-14.288409-14.274399-21.425609-31.520964-21.425609-51.713674 0-20.190709 7.1372-37.423263 21.425609-51.711673s31.526968-21.431613 51.711672-21.431613c20.190709 0 37.439275 7.143204 51.717677 21.431613 14.280403 14.288409 21.429612 31.520964 21.429612 51.711673 0 20.192711-7.149208 37.425265-21.429612 51.713674z m109.717932-256.0005c-14.294414 14.284406-31.526968 21.433615-51.719679 21.433615s-37.431269-7.157214-51.719679-21.433615c-14.280403-14.280403-21.42761-31.520964-21.42761-51.711673s7.139201-37.425265 21.42761-51.711673c14.294414-14.288409 31.526968-21.433615 51.719679-21.433614 20.190709 0 37.431269 7.147207 51.719679 21.433614 14.280403 14.288409 21.42761 31.520964 21.42761 51.711673 0 20.184705-7.149208 37.423263-21.42761 51.711673z m323.703823 4.85954l-57.72005 218.283023c19.061887 12.945431 32.775878 30.274055 41.157984 51.997881 8.370098 21.713819 9.520936 44.000055 3.424495 66.856706-7.61755 29.335371-24.573902 51.623609-50.863054 66.854705-26.289152 15.239102-54.091406 19.055883-83.432783 11.432328-29.327365-7.61755-51.619606-24.567898-66.852703-50.85705-15.233098-26.295156-19.041872-54.093408-11.424323-83.436785 6.092438-22.848646 18.093181-41.610314 36.000227-56.266991 17.901041-14.676692 38.279887-22.952721 61.136539-24.862112l57.716047-218.287026c2.663941-9.903215 8.378104-17.434701 17.136484-22.578449 8.768388-5.13374 17.903043-6.372643 27.431985-3.708702 9.534946 2.669945 16.862284 8.284035 21.998026 16.852278 5.155756 8.580251 6.578793 17.81698 4.291126 27.720194z m84.861823-4.85954c-14.288409-14.280403-21.437618-31.520964-21.437617-51.711673s7.149208-37.425265 21.437617-51.711673 31.520964-21.433615 51.713674-21.433614c20.190709 0 37.423263 7.147207 51.711673 21.433614s21.439619 31.520964 21.439619 51.711673c0 20.184705-7.15121 37.425265-21.439619 51.711673-14.288409 14.284406-31.520964 21.433615-51.711673 21.433615-20.192711 0-37.425265-7.149208-51.713674-21.433615z m213.139275 256.0005c-14.288409 14.280403-31.520964 21.445623-51.711672 21.445624-20.192711 0-37.425265-7.16522-51.713675-21.445624-14.288409-14.274399-21.431613-31.520964-21.431613-51.713674 0-20.190709 7.143204-37.423263 21.431613-51.711673s31.520964-21.431613 51.713675-21.431613c20.190709 0 37.423263 7.143204 51.711672 21.431613s21.423607 31.520964 21.423608 51.711673c0 20.192711-7.1372 37.425265-21.423608 51.713674z"  /></svg>