<?xml version="1.0" standalone="no"?><!DOCTYPE svg PUBLIC "-//W3C//DTD SVG 1.1//EN" "http://www.w3.org/Graphics/SVG/1.1/DTD/svg11.dtd"><svg class="icon" width="32px" height="32.00px" viewBox="0 0 1024 1024" version="1.1" xmlns="http://www.w3.org/2000/svg"><path d="M982.789 561.904l-193.056 184.007c-36.197 33.182-90.494 9.050-90.494-42.23v-123.677h-331.814c-18.098 0-30.163-12.066-30.163-30.163v-60.331c0-18.098 12.066-30.163 30.163-30.163h331.814v-123.677c0-48.265 57.313-75.413 90.494-42.23l193.056 184.007c24.132 24.132 24.132 60.331 0 84.463zM669.077 187.858h-452.474c-33.182 0-60.331 27.149-60.331 60.331v542.969c0 33.182 27.149 60.331 60.331 60.331h452.474c33.182 0 60.331 27.149 60.331 60.331s-27.149 60.331-60.331 60.331h-573.133c-33.182 0-60.331-27.149-60.331-60.331v-784.288c0-33.182 27.149-60.331 60.331-60.331h573.133c33.182 0 60.331 27.149 60.331 60.331s-27.149 60.331-60.331 60.331z" /></svg>