<?xml version="1.0" standalone="no"?><!DOCTYPE svg PUBLIC "-//W3C//DTD SVG 1.1//EN" "http://www.w3.org/Graphics/SVG/1.1/DTD/svg11.dtd"><svg class="icon" width="32px" height="32.00px" viewBox="0 0 1024 1024" version="1.1" xmlns="http://www.w3.org/2000/svg"><path d="M596.570117 551.798425 845.306178 551.798425c8.243755 0 14.923898 6.682189 14.923898 14.923898l0 29.848819c0 8.243755-6.680143 14.925944-14.923898 14.925944L596.570117 611.497085c-8.241708 0-14.923898-6.682189-14.923898-14.925944l0-29.848819C581.64622 558.480614 588.328409 551.798425 596.570117 551.798425zM596.570117 452.30441 845.306178 452.30441c8.243755 0 14.923898 6.682189 14.923898 14.923898l0 29.848819c0 8.241708-6.680143 14.921851-14.923898 14.921851L596.570117 511.998977c-8.241708 0-14.923898-6.680143-14.923898-14.921851l0-29.848819C581.64622 458.986599 588.328409 452.30441 596.570117 452.30441zM596.570117 352.807325 845.306178 352.807325c8.243755 0 14.923898 6.684236 14.923898 14.925944l0 29.848819c0 8.241708-6.680143 14.923898-14.923898 14.923898L596.570117 412.505985c-8.241708 0-14.923898-6.682189-14.923898-14.923898l0-29.848819C581.64622 359.491561 588.328409 352.807325 596.570117 352.807325zM162.525584 651.913587c0-92.499717 53.477982-161.056116 170.384575-161.056116s169.763428 65.294099 169.763428 152.97302c0 3.514033 0.214894 23.898293 0 27.361161L162.525584 671.191652 162.525584 651.913587zM239.633752 375.196241c0-47.075155 44.062542-85.814458 92.032066-85.814458s94.519724 43.715641 94.519724 90.788749c0 47.075155-44.772716 94.519724-94.519724 94.519724C283.695271 474.690256 239.633752 422.268326 239.633752 375.196241zM189.440583 173.71953c-69.130474 0-125.165698 56.037271-125.165698 125.164674L64.274886 725.117842c0 69.124334 56.035224 125.162628 125.165698 125.162628l113.620757 0 0-59.694567-39.797401 0 0-39.797401 58.104349 0 3.183506 0 58.104349 0 0 39.797401-39.797401 0 0 59.694567 338.281493 0 0-59.694567-39.797401 0 0-39.797401 58.104349 0 3.183506 0 58.104349 0 0 39.797401-39.797401 0 0 59.694567L834.561463 850.28047c69.12638 0 125.163651-56.037271 125.163651-125.162628L959.725114 298.883181c0-69.12638-56.037271-125.164674-125.163651-125.164674L189.440583 173.718507z" /></svg>