<?xml version="1.0" standalone="no"?><!DOCTYPE svg PUBLIC "-//W3C//DTD SVG 1.1//EN" "http://www.w3.org/Graphics/SVG/1.1/DTD/svg11.dtd"><svg class="icon" width="32px" height="32.00px" viewBox="0 0 1024 1024" version="1.1" xmlns="http://www.w3.org/2000/svg"><path d="M921.6 339.2c-6.4 0-6.4 0 0 0C870.4 140.8 704 0 505.6 0 300.8 0 128 153.6 89.6 352c-38.4 6.4-64 38.4-64 76.8v160c0 44.8 38.4 83.2 76.8 83.2 25.6 0 44.8-12.8 57.6-32 32 96 108.8 166.4 198.4 211.2 0 0 0-6.4 6.4-6.4 0 0 0-6.4 6.4-6.4h6.4c-19.2-12.8-96-96-115.2-211.2-12.8-44.8 25.6-89.6 70.4-102.4 70.4-12.8 134.4-25.6 204.8-38.4 44.8-6.4 70.4-32 89.6-70.4 6.4-12.8 12.8-32 12.8-57.6 0-6.4 6.4-6.4 6.4-6.4s6.4 0 6.4 6.4c25.6 38.4 83.2 128 89.6 224 6.4 108.8 6.4 179.2-76.8 256v12.8h6.4c83.2-44.8 140.8-121.6 172.8-211.2 12.8 19.2 32 32 51.2 32-32 153.6-172.8 256-339.2 268.8-12.8-25.6-38.4-44.8-64-44.8-38.4 0-70.4 32-70.4 70.4s32 57.6 70.4 57.6c32 0 57.6-19.2 64-51.2 198.4-19.2 352-134.4 390.4-320 32-12.8 51.2-38.4 51.2-76.8V416c0-44.8-32-76.8-76.8-76.8z m-76.8 44.8c-51.2-140.8-185.6-243.2-339.2-243.2-160 0-288 102.4-339.2 243.2 0-6.4-6.4-6.4-6.4-6.4C192 204.8 332.8 76.8 512 76.8c172.8 0 320 128 352 300.8-12.8-6.4-12.8 0-19.2 6.4z"  /></svg>