<?xml version="1.0" standalone="no"?><!DOCTYPE svg PUBLIC "-//W3C//DTD SVG 1.1//EN" "http://www.w3.org/Graphics/SVG/1.1/DTD/svg11.dtd"><svg class="icon" width="32px" height="32.00px" viewBox="0 0 1024 1024" version="1.1" xmlns="http://www.w3.org/2000/svg"><path d="M826.29703 912.475248l136.871287-172.356436-70.970297-111.524753 10.138614-50.693069L1013.861386 506.930693l-50.693069-217.980198-126.732673-15.207921-30.415842-40.554455 15.207921-131.80198L623.524752 5.069307l-91.247524 91.247525h-50.69307L390.336634 0 192.633663 96.316832l15.207921 131.80198-30.415841 40.554455-126.732674 15.207921-45.623762 217.980198 111.524752 70.970297 10.138614 50.693069-65.90099 111.524753L197.70297 912.475248l121.663367-45.623763 45.623762 25.346535 40.554455 126.732673 217.980198 5.069307 40.554456-126.732673 45.623762-25.346535 116.59406 40.554456z m-263.603961 20.277227H456.237624l-35.485149-101.386138-106.455445-50.69307-101.386139 35.485149-65.90099-86.178218L202.772277 638.732673l-25.346534-116.594059-91.247525-60.831683 20.277228-106.455446 106.455445-10.138614L283.881188 253.465347l-10.138614-106.455446L370.059406 101.386139l76.039604 76.039604h116.594059L638.732673 101.386139l96.316832 50.693069-10.138614 106.455445L795.881188 354.851485l106.455446 15.207921 25.346534 106.455445-91.247524 55.762377-25.346535 116.594059 55.762376 91.247525-65.90099 86.178218-101.386139-35.485149-106.455445 50.693069-30.415842 91.247525zM659.009901 385.267327c-65.90099-86.178218-192.633663-101.386139-273.742574-35.485149C304.158416 420.752475 288.950495 542.415842 354.851485 628.594059c65.90099 86.178218 192.633663 101.386139 273.742574 35.485149 81.108911-70.970297 96.316832-192.633663 30.415842-278.811881z m-248.39604 197.70297c-40.554455-55.762376-35.485149-131.80198 20.277228-177.425743s126.732673-35.485149 172.356436 20.277228c40.554455 55.762376 35.485149 131.80198-20.277228 177.425743-55.762376 45.623762-131.80198 35.485149-172.356436-20.277228z"  /></svg>